<?xml version="1.0" encoding="UTF-8" standalone="no"?>
<!-- Created with Inkscape (http://www.inkscape.org/) -->

<svg
   xmlns:dc="http://purl.org/dc/elements/1.1/"
   xmlns:cc="http://creativecommons.org/ns#"
   xmlns:rdf="http://www.w3.org/1999/02/22-rdf-syntax-ns#"
   xmlns:svg="http://www.w3.org/2000/svg"
   xmlns="http://www.w3.org/2000/svg"
   xmlns:sodipodi="http://sodipodi.sourceforge.net/DTD/sodipodi-0.dtd"
   xmlns:inkscape="http://www.inkscape.org/namespaces/inkscape"
   width="210mm"
   height="297mm"
   viewBox="0 0 744.09448819 1052.3622047"
   id="svg2"
   version="1.1"
   inkscape:version="0.91 r13725"
   sodipodi:docname="rss-feed-icon-gray.svg">
  <defs
     id="defs4" />
  <sodipodi:namedview
     id="base"
     pagecolor="#ffffff"
     bordercolor="#666666"
     borderopacity="1.0"
     inkscape:pageopacity="0.0"
     inkscape:pageshadow="2"
     inkscape:zoom="0.35"
     inkscape:cx="-69.285714"
     inkscape:cy="520"
     inkscape:document-units="px"
     inkscape:current-layer="g3337"
     showgrid="false"
     inkscape:window-width="1366"
     inkscape:window-height="719"
     inkscape:window-x="0"
     inkscape:window-y="0"
     inkscape:window-maximized="1" />
  <metadata
     id="metadata7">
    <rdf:RDF>
      <cc:Work
         rdf:about="">
        <dc:format>image/svg+xml</dc:format>
        <dc:type
           rdf:resource="http://purl.org/dc/dcmitype/StillImage" />
        <dc:title></dc:title>
      </cc:Work>
    </rdf:RDF>
  </metadata>
  <g
     inkscape:label="Layer 1"
     inkscape:groupmode="layer"
     id="layer1">
    <g
       id="g3337"
       transform="translate(12.907147,16.648221)">
      <path
         id="path3339"
         d="m 63.5,373.6 c -34.9,0 -63.2,28.3 -63.2,63.2 0,34.9 28.3,63.2 63.2,63.2 34.9,0 63.2,-28.3 63.2,-63.2 0.1,-34.9 -28.2,-63.2 -63.2,-63.2 z"
         inkscape:connector-curvature="0"
         style="fill:#eed2d3;fill-opacity:1" />
      <path
         id="path3341"
         d="m 0.3,150.5 0,99.5 C 257.2,261.7 251,500 251,500 l 98.5,0 C 329.8,149.2 0.3,150.5 0.3,150.5 Z"
         inkscape:connector-curvature="0"
         style="fill:#eed2d3;fill-opacity:1" />
      <path
         id="path3343"
         d="m 0.3,0 0,100.8 C 400.1,118.1 400.1,500 400.1,500 l 99.5,0 C 472,-3.4 0.3,0 0.3,0 Z"
         inkscape:connector-curvature="0"
         style="fill:#eed2d3;fill-opacity:1" />
    </g>
  </g>
</svg>
